<svg width="24" height="25" viewBox="0 0 24 25" fill="none" xmlns="http://www.w3.org/2000/svg">
<path d="M12.4839 4.22025L12.4843 4.2196L15.6281 5.15349L15.6281 5.1535C15.8658 5.22415 16.0742 5.36969 16.2224 5.56842C16.3705 5.76715 16.4505 6.00844 16.4504 6.25633C16.4504 6.25633 16.4504 6.25634 16.4504 6.25635V10.9357V10.9358C16.45 11.1833 16.3698 11.4241 16.2217 11.6223C16.0735 11.8206 15.8654 11.9658 15.6281 12.0364L12.5978 12.9372C12.5996 12.9564 12.6004 12.9756 12.6004 12.9949C12.6004 12.995 12.6004 12.995 12.6004 12.995M12.4839 4.22025L12.5504 12.9949L12.6004 12.995M12.4839 4.22025C12.1682 4.1267 11.8321 4.12684 11.5165 4.22069C11.5165 4.22069 11.5165 4.2207 11.5164 4.2207L8.36498 5.15569L8.36495 5.1557C8.12947 5.22567 7.92292 5.36991 7.77612 5.56688C7.62933 5.76386 7.55015 6.00302 7.5504 6.24868M12.4839 4.22025L11.403 12.9383L8.37267 12.0386L8.37265 12.0386C8.13485 11.9678 7.92629 11.8221 7.7781 11.6232C7.62991 11.4242 7.55003 11.1826 7.5504 10.9346M12.6004 12.995L12.6004 14.0449M12.6004 12.995L12.6004 14.0449M12.6004 14.0449H14.2004C14.7971 14.0449 15.3694 14.282 15.7914 14.7039C16.2133 15.1259 16.4504 15.6982 16.4504 16.2949V16.3094C17.1139 16.455 17.7025 16.837 18.1056 17.3849C18.5169 17.9437 18.706 18.6354 18.6362 19.3258C18.5665 20.0162 18.2429 20.656 17.7282 21.1214C17.2134 21.5867 16.5443 21.8444 15.8504 21.8444C15.1565 21.8444 14.4873 21.5867 13.9726 21.1214C13.4579 20.656 13.1343 20.0162 13.0646 19.3258C12.9948 18.6354 13.1839 17.9437 13.5952 17.3849C13.9983 16.837 14.5869 16.455 15.2504 16.3094V16.2949C15.2504 16.0164 15.1398 15.7494 14.9429 15.5525C14.7459 15.3555 14.4789 15.2449 14.2004 15.2449H9.8004C9.52192 15.2449 9.25485 15.3555 9.05793 15.5525C8.86102 15.7494 8.7504 16.0164 8.7504 16.2949V16.3094C9.41393 16.455 10.0025 16.837 10.4056 17.3849C10.8169 17.9437 11.006 18.6354 10.9362 19.3258C10.8665 20.0162 10.5429 20.656 10.0282 21.1214C9.51345 21.5867 8.84428 21.8444 8.1504 21.8444C7.45651 21.8444 6.78735 21.5867 6.27263 21.1214C5.75791 20.656 5.43432 20.0162 5.36458 19.3258C5.29483 18.6354 5.48392 17.9437 5.89517 17.3849C6.29833 16.837 6.88686 16.455 7.5504 16.3094V16.2949C7.5504 15.6982 7.78745 15.1259 8.20941 14.7039C8.63136 14.282 9.20366 14.0449 9.8004 14.0449H11.4004V12.995V12.9949L12.6004 14.0449ZM7.5504 6.24868V6.24863H7.6004L7.5504 6.24868ZM7.5504 6.24868V10.9346M7.5504 10.9346V10.9346H7.6004L7.5504 10.9346ZM12.1424 5.37037C12.0497 5.34292 11.9511 5.34292 11.8585 5.37035L12.1424 5.37037ZM12.1424 5.37037L15.2504 6.29363V10.8984L12.1424 11.8217C12.0497 11.8491 11.9511 11.8491 11.8585 11.8217L12.1424 5.37037ZM8.7504 6.29472L11.8584 5.37037V11.8217L8.7504 10.8973V6.29472ZM6.5504 19.0449C6.5504 18.6206 6.71897 18.2136 7.01903 17.9136C7.31908 17.6135 7.72605 17.4449 8.1504 17.4449C8.57474 17.4449 8.98171 17.6135 9.28177 17.9136C9.58183 18.2136 9.7504 18.6206 9.7504 19.0449C9.7504 19.4693 9.58183 19.8762 9.28177 20.1763C8.98171 20.4764 8.57474 20.6449 8.1504 20.6449C7.72605 20.6449 7.31908 20.4764 7.01903 20.1763C6.71897 19.8762 6.5504 19.4693 6.5504 19.0449ZM15.8504 17.4449C16.2747 17.4449 16.6817 17.6135 16.9818 17.9136C17.2818 18.2136 17.4504 18.6206 17.4504 19.0449C17.4504 19.4693 17.2818 19.8762 16.9818 20.1763C16.6817 20.4764 16.2747 20.6449 15.8504 20.6449C15.4261 20.6449 15.0191 20.4764 14.719 20.1763C14.419 19.8762 14.2504 19.4693 14.2504 19.0449C14.2504 18.6206 14.419 18.2136 14.719 17.9136C15.0191 17.6135 15.4261 17.4449 15.8504 17.4449Z" fill="#213339" stroke="#213339" stroke-width="0.1"/>
</svg>
