<svg width="20" height="20" viewBox="0 0 20 20" fill="none" xmlns="http://www.w3.org/2000/svg">
<path d="M10.4839 1.22025L10.4843 1.2196L13.6281 2.15349L13.6281 2.1535C13.8658 2.22415 14.0742 2.36969 14.2224 2.56842C14.3705 2.76715 14.4505 3.00844 14.4504 3.25633C14.4504 3.25633 14.4504 3.25634 14.4504 3.25635V7.93572V7.9358C14.45 8.1833 14.3698 8.42407 14.2217 8.62235C14.0735 8.82062 13.8654 8.96581 13.6281 9.03635L10.5978 9.93722C10.5996 9.95639 10.6004 9.97565 10.6004 9.99492C10.6004 9.99496 10.6004 9.995 10.6004 9.99504M10.4839 1.22025L10.5504 9.99492L10.6004 9.99504M10.4839 1.22025C10.1682 1.1267 9.83213 1.12684 9.51648 1.22069C9.51647 1.22069 9.51646 1.2207 9.51645 1.2207L6.36498 2.15569L6.36495 2.1557C6.12947 2.22567 5.92292 2.36991 5.77612 2.56688C5.62933 2.76386 5.55015 3.00302 5.5504 3.24868M10.4839 1.22025L9.40302 9.93833L6.37267 9.03856L6.37265 9.03855C6.13485 8.96784 5.92629 8.82213 5.7781 8.62317C5.62991 8.4242 5.55003 8.18264 5.5504 7.93455M10.6004 9.99504L10.6004 11.0449M10.6004 9.99504L10.6004 11.0449M10.6004 11.0449H12.2004C12.7971 11.0449 13.3694 11.282 13.7914 11.7039C14.2133 12.1259 14.4504 12.6982 14.4504 13.2949V13.3094C15.1139 13.455 15.7025 13.837 16.1056 14.3849C16.5169 14.9437 16.706 15.6354 16.6362 16.3258C16.5665 17.0162 16.2429 17.656 15.7282 18.1214C15.2134 18.5867 14.5443 18.8444 13.8504 18.8444C13.1565 18.8444 12.4873 18.5867 11.9726 18.1214C11.4579 17.656 11.1343 17.0162 11.0646 16.3258C10.9948 15.6354 11.1839 14.9437 11.5952 14.3849C11.9983 13.837 12.5869 13.455 13.2504 13.3094V13.2949C13.2504 13.0164 13.1398 12.7494 12.9429 12.5525C12.7459 12.3555 12.4789 12.2449 12.2004 12.2449H7.8004C7.52192 12.2449 7.25485 12.3555 7.05793 12.5525C6.86102 12.7494 6.7504 13.0164 6.7504 13.2949V13.3094C7.41393 13.455 8.00246 13.837 8.40563 14.3849C8.81688 14.9437 9.00596 15.6354 8.93622 16.3258C8.86648 17.0162 8.54288 17.656 8.02816 18.1214C7.51345 18.5867 6.84428 18.8444 6.1504 18.8444C5.45651 18.8444 4.78735 18.5867 4.27263 18.1214C3.75791 17.656 3.43432 17.0162 3.36458 16.3258C3.29483 15.6354 3.48392 14.9437 3.89517 14.3849C4.29833 13.837 4.88686 13.455 5.5504 13.3094V13.2949C5.5504 12.6982 5.78745 12.1259 6.20941 11.7039C6.63136 11.282 7.20366 11.0449 7.8004 11.0449H9.4004V9.99496V9.99492L10.6004 11.0449ZM5.5504 3.24868V3.24863H5.6004L5.5504 3.24868ZM5.5504 3.24868V7.93455M5.5504 7.93455V7.93462H5.6004L5.5504 7.93455ZM10.1424 2.37037C10.0497 2.34292 9.95111 2.34292 9.85845 2.37035L10.1424 2.37037ZM10.1424 2.37037L13.2504 3.29363V7.89842L10.1424 8.82168C10.0497 8.84913 9.95111 8.84913 9.85845 8.8217L10.1424 2.37037ZM6.7504 3.29472L9.8584 2.37037V8.82168L6.7504 7.89733V3.29472ZM4.5504 16.0449C4.5504 15.6206 4.71897 15.2136 5.01903 14.9136C5.31908 14.6135 5.72605 14.4449 6.1504 14.4449C6.57474 14.4449 6.98171 14.6135 7.28177 14.9136C7.58183 15.2136 7.7504 15.6206 7.7504 16.0449C7.7504 16.4693 7.58183 16.8762 7.28177 17.1763C6.98171 17.4764 6.57474 17.6449 6.1504 17.6449C5.72605 17.6449 5.31908 17.4764 5.01903 17.1763C4.71897 16.8762 4.5504 16.4693 4.5504 16.0449ZM13.8504 14.4449C14.2747 14.4449 14.6817 14.6135 14.9818 14.9136C15.2818 15.2136 15.4504 15.6206 15.4504 16.0449C15.4504 16.4693 15.2818 16.8762 14.9818 17.1763C14.6817 17.4764 14.2747 17.6449 13.8504 17.6449C13.4261 17.6449 13.0191 17.4764 12.719 17.1763C12.419 16.8762 12.2504 16.4693 12.2504 16.0449C12.2504 15.6206 12.419 15.2136 12.719 14.9136C13.0191 14.6135 13.4261 14.4449 13.8504 14.4449Z" fill="#213339" stroke="#213339" stroke-width="0.1"/>
</svg>
